<svg width="62" height="24" viewBox="0 0 62 24" fill="none" xmlns="http://www.w3.org/2000/svg">
<g id="Astro ME - Wallet infrastructure to onboard the next billion user 1" clip-path="url(#clip0_1058_450)">
<path id="Vector" fill-rule="evenodd" clip-rule="evenodd" d="M46.564 10.7915C46.564 10.7915 46.2755 11.7003 45.9766 13.0173L45.8684 14.2086C45.5593 17.7301 47.2647 18.7418 50.8814 18.7532L50.0571 23.564L49.9953 23.9118C49.3667 23.9668 48.7021 23.9994 48.0065 23.9994C40.3402 23.9994 37.4397 19.9777 38.9647 12.5438L39.0832 11.9779C40.5103 5.02233 45.5541 0.652344 52.0046 0.652344C52.7053 0.652344 53.3544 0.690438 53.9572 0.767171C53.9572 0.767171 50.9051 3.15461 49.9885 3.93392C48.1503 5.49797 47.5429 7.55346 46.5691 10.7915H46.564Z" fill="url(#paint0_linear_1058_450)"/>
<path id="Vector_2" fill-rule="evenodd" clip-rule="evenodd" d="M54.8918 11.2549H51.2478C49.5373 11.2549 47.9005 13.0181 47.9005 13.0181C48.1993 11.7011 48.4878 10.7924 48.4878 10.7924H48.493C49.4667 7.55432 50.5641 5.48632 52.9237 5.55216C56.1593 5.64414 55.5667 7.97334 54.8918 11.2549ZM53.9284 0.654297C47.478 0.654297 42.4341 5.02374 41.007 11.9787L40.8885 12.5447C39.3635 19.9786 42.2641 24.0002 49.9304 24.0002C53.9078 24.0002 56.7929 22.9935 58.6322 21.9921L60.6106 17.024C58.792 17.7201 55.4019 18.7541 52.8516 18.7541C49.204 18.7541 47.4832 17.7479 47.7923 14.2105H61.1104L61.5071 12.284C63.0269 4.89368 61.1722 0.654297 53.9284 0.654297Z" fill="#23232F"/>
<path id="Vector_3" fill-rule="evenodd" clip-rule="evenodd" d="M14.2661 0.636379L10.3454 23.5639H4.13712L7.41387 7.61258C7.56326 6.82402 3.46735 7.58588 0 10.4975L0.54612 7.55873C2.236 4.61944 3.87952 2.34519 7.58386 0.809979C9.92288 -0.164151 12.772 -0.305101 14.2661 0.636379Z" fill="url(#paint1_linear_1058_450)"/>
<g id="Mask group">
<mask id="mask0_1058_450" style="mask-type:alpha" maskUnits="userSpaceOnUse" x="2" y="0" width="37" height="24">
<g id="Group">
<path id="Vector_4" fill-rule="evenodd" clip-rule="evenodd" d="M2.38965 0H38.8471V23.5635H2.38965V0Z" fill="white"/>
</g>
</mask>
<g mask="url(#mask0_1058_450)">
<g id="Group_2">
<path id="Vector_5" fill-rule="evenodd" clip-rule="evenodd" d="M35.9884 19.5354L38.618 6.73187C39.5341 2.27208 37.6463 0.654701 33.9611 0.654701C31.3644 0.654701 29.622 2.46582 27.8187 4.62252L27.7884 4.43259C27.6101 2.56542 25.7157 0.654701 23.2447 0.654701C20.4384 0.654701 18.9789 2.42827 17.5677 4.2579L17.2647 4.71286L17.2451 4.70088L17.5574 3.28866C18.5182 -0.20406 13.6243 -0.709085 9.96885 0.809801C6.26659 2.34773 4.62411 4.62306 2.93577 7.56176L2.38965 10.4983C5.85185 7.58576 9.94981 6.82656 9.7999 7.61621L6.52471 23.5637H13.6861L17.0535 7.16887C17.9067 6.62738 18.5646 6.38358 19.34 6.42548C20.6785 6.49786 20.7099 7.08125 20.3508 8.83031L17.3245 23.5637H24.4447L27.7044 7.69346C27.7312 7.56236 27.7606 7.30002 27.7698 7.16887C28.674 6.57623 29.1531 6.43582 29.5298 6.42548C31.2557 6.38031 31.4268 7.08125 31.0672 8.83031L28.0413 23.5637H31.9146H35.161H37.2986C37.2986 23.5637 35.3305 22.7387 35.9884 19.5354Z" fill="#23232F"/>
</g>
</g>
</g>
</g>
<defs>
<linearGradient id="paint0_linear_1058_450" x1="61.6497" y1="12.7091" x2="40.6235" y2="-1.61682" gradientUnits="userSpaceOnUse">
<stop stop-color="#02A4EF"/>
<stop offset="1" stop-color="#2DFFC4"/>
</linearGradient>
<linearGradient id="paint1_linear_1058_450" x1="21.3992" y1="12.1688" x2="0.888153" y2="-0.670623" gradientUnits="userSpaceOnUse">
<stop stop-color="#02A4EF"/>
<stop offset="1" stop-color="#2DFFC4"/>
</linearGradient>
<clipPath id="clip0_1058_450">
<rect width="62" height="24" fill="white"/>
</clipPath>
</defs>
</svg>
