<svg width="20" height="21" viewBox="0 0 20 21" fill="none" xmlns="http://www.w3.org/2000/svg">
<g id="Frame">
<path id="Vector" d="M16.6667 6H3.33333C2.59695 6 2 6.59695 2 7.33333V17.1111C2 17.8475 2.59695 18.4444 3.33333 18.4444H16.6667C17.403 18.4444 18 17.8475 18 17.1111V7.33333C18 6.59695 17.403 6 16.6667 6Z" stroke="#333333" stroke-width="0.888889" stroke-linejoin="round"/>
<path id="Vector_2" d="M2 14H18V17.1111C18 17.8475 17.4031 18.4444 16.6667 18.4444H3.33333C2.59696 18.4444 2 17.8475 2 17.1111V14Z" stroke="#333333" stroke-width="0.888889" stroke-linejoin="round"/>
<path id="Vector_3" d="M7.77789 6.00011C9.00519 6.00011 10.0001 5.00519 10.0001 3.77789C10.0001 2.55059 9.00519 1.55566 7.77789 1.55566C6.55059 1.55566 5.55566 2.55059 5.55566 3.77789C5.55566 5.00519 6.55059 6.00011 7.77789 6.00011Z" stroke="#333333" stroke-width="0.888889"/>
<path id="Vector_4" d="M11.7778 5.99989C12.7596 5.99989 13.5556 5.20395 13.5556 4.22211C13.5556 3.24027 12.7596 2.44434 11.7778 2.44434C10.7959 2.44434 10 3.24027 10 4.22211C10 5.20395 10.7959 5.99989 11.7778 5.99989Z" stroke="#333333" stroke-width="0.888889"/>
<path id="Vector_5" d="M6.88867 8.66667L9.99978 6L13.1109 8.66667" stroke="#333333" stroke-width="0.888889" stroke-linecap="round" stroke-linejoin="round"/>
</g>
</svg>
