<svg xmlns="http://www.w3.org/2000/svg" width="24" height="24" viewBox="0 0 24 24" fill="none">
    <path d="M23.0339 11.996C23.0339 18.069 18.111 22.9919 12.038 22.9919C5.96511 22.9919 1.04199 18.069 1.04199 11.996C1.04199 5.92301 5.96511 1 12.038 1C18.111 1 23.0339 5.92301 23.0339 11.996Z" fill="#1BA27A"/>
    <path d="M17.1992 6.54395H6.78711V9.05762H10.7363V12.7523H13.25V9.05762H17.1992V6.54395Z" fill="white"/>
    <path d="M12.0163 13.1469C8.74935 13.1469 6.10075 12.6298 6.10075 11.992C6.10075 11.3542 8.74924 10.8371 12.0163 10.8371C15.2832 10.8371 17.9316 11.3542 17.9316 11.992C17.9316 12.6298 15.2832 13.1469 12.0163 13.1469ZM18.6584 12.1845C18.6584 11.362 15.6846 10.6953 12.0163 10.6953C8.348 10.6953 5.37402 11.362 5.37402 12.1845C5.37402 12.9088 7.67999 13.5123 10.7357 13.646V18.9498H13.2491V13.6481C16.3283 13.5185 18.6584 12.9125 18.6584 12.1845Z" fill="white"/>
</svg>