<svg xmlns="http://www.w3.org/2000/svg" width="136" height="37" viewBox="0 0 136 37" fill="none">
    <g filter="url(#filter0_d_1072_63)">
        <path d="M7 19.5209C7 17.2721 7.93056 15.1154 9.58698 13.5252C11.2434 11.9351 13.49 11.0418 15.8325 11.0418H98.8583C104.842 10.5754 107.404 8.15887 112.604 5.66813C112.659 5.66152 112.715 5.6678 112.766 5.68642C112.818 5.70505 112.865 5.73546 112.901 5.77506C112.938 5.81467 112.965 5.86227 112.978 5.91379C112.992 5.96532 112.992 6.01923 112.979 6.07089L111.732 9.98189C111.707 10.0739 111.71 10.1708 111.741 10.261C111.772 10.3513 111.829 10.4312 111.906 10.4914C111.982 10.5515 112.075 10.5894 112.173 10.6006C112.272 10.6117 112.371 10.5956 112.46 10.5542L113.333 10.1409C117.743 8.00877 122.407 6.40003 127.222 5.35016L128.723 5.0216C128.762 5.00164 128.806 4.99525 128.849 5.00353C128.892 5.01182 128.931 5.03425 128.958 5.06696C128.986 5.09967 129.001 5.14059 129 5.18263C128.999 5.22467 128.983 5.26519 128.955 5.29716L126.427 8.7948C124.86 11.2203 124.031 14.0174 124.031 16.8712V19.5209C124.031 21.7697 123.1 23.9264 121.444 25.5165C119.787 27.1067 117.541 28 115.198 28H7V19.5209Z" fill="url(#paint0_linear_1072_63)"/>
    </g>
    <defs>
        <filter id="filter0_d_1072_63" x="0.5" y="0.666667" width="135" height="36" filterUnits="userSpaceOnUse" color-interpolation-filters="sRGB">
            <feFlood flood-opacity="0" result="BackgroundImageFix"/>
            <feColorMatrix in="SourceAlpha" type="matrix" values="0 0 0 0 0 0 0 0 0 0 0 0 0 0 0 0 0 0 127 0" result="hardAlpha"/>
            <feOffset dy="2.16667"/>
            <feGaussianBlur stdDeviation="3.25"/>
            <feComposite in2="hardAlpha" operator="out"/>
            <feColorMatrix type="matrix" values="0 0 0 0 0 0 0 0 0 0 0 0 0 0 0 0 0 0 0.18 0"/>
            <feBlend mode="normal" in2="BackgroundImageFix" result="effect1_dropShadow_1072_63"/>
            <feBlend mode="normal" in="SourceGraphic" in2="effect1_dropShadow_1072_63" result="shape"/>
        </filter>
        <linearGradient id="paint0_linear_1072_63" x1="128.999" y1="16.5002" x2="4.14047" y2="16.5002" gradientUnits="userSpaceOnUse">
            <stop stop-color="#FF4244"/>
            <stop offset="1" stop-color="#FF715D"/>
        </linearGradient>
    </defs>
</svg>