<svg xmlns="http://www.w3.org/2000/svg" width="611" height="164" viewBox="0 0 611 164" fill="none">
    <path d="M79.5 59.527C54.5 59.527 -1.5 144.002 -8 149.002V192.502C192.667 195.002 604.6 194.228 607 173.028C610 146.528 622.5 67.0007 577.5 46.5001C554.023 35.8047 530.189 92.9371 499 59.5268C476.104 35.0001 435 -7.49981 402.5 1.50014C370 10.5001 362 80.0273 340 80.0273C308 80.0273 315.5 16.0001 283 16.0001C250.5 16.0001 254.5 80.0273 229 80.0273C213 80.0273 216.66 46.5001 188.5 46.5001C156 46.5001 159.466 95.5269 137.5 95.5269C112 95.5269 104.5 59.527 79.5 59.527Z" fill="#FFE1E3" fill-opacity="0.22"/>
</svg>