<svg width="24" height="24" viewBox="0 0 24 24" fill="none" xmlns="http://www.w3.org/2000/svg">
<g id="Frame">
<g id="Group" opacity="0.9">
<path id="Vector" d="M13.2432 13.2165L12.4316 15.3412C12.4095 15.4003 12.4095 15.4646 12.4316 15.5237L13.8279 19.1795L15.443 18.2892L13.5046 13.2165C13.4606 13.0997 13.2872 13.0997 13.2432 13.2165Z" fill="#00A3FF"/>
<path id="Vector_2" d="M14.8707 9.64429C14.8267 9.52743 14.6534 9.52743 14.6093 9.64429L13.7977 11.769C13.7758 11.828 13.7758 11.8924 13.7977 11.9515L16.0855 17.9367L17.7005 17.0464L14.8707 9.64429Z" fill="#00A3FF"/>
<path id="Vector_3" d="M12.0011 4.99142C12.041 4.99142 12.0809 5.00192 12.1166 5.0203L18.2757 8.41475C18.3472 8.45415 18.3912 8.52768 18.3912 8.60516V15.3927C18.3912 15.4715 18.3472 15.5437 18.2757 15.5831L12.1166 18.9776C12.0822 18.9973 12.041 19.0065 12.0011 19.0065C11.9612 19.0065 11.9213 18.996 11.8855 18.9776L5.72648 15.5858C5.65495 15.5464 5.61092 15.4728 5.61092 15.3954V8.60647C5.61092 8.52768 5.65495 8.45546 5.72648 8.41607L11.8855 5.02162C11.9213 5.00192 11.9612 4.99142 12.0011 4.99142ZM12.0011 4C11.7823 4 11.5622 4.05384 11.3655 4.16283L5.20784 7.55596C4.81439 7.77263 4.57227 8.17314 4.57227 8.60647V15.3941C4.57227 15.8274 4.81439 16.2279 5.20784 16.4446L11.3669 19.839C11.5636 19.9467 11.7823 20.0018 12.0025 20.0018C12.2212 20.0018 12.4413 19.948 12.638 19.839L18.7971 16.4446C19.1905 16.2279 19.4326 15.8274 19.4326 15.3941V8.60647C19.4326 8.17314 19.1905 7.77263 18.7971 7.55596L12.6367 4.16283C12.4399 4.05384 12.2198 4 12.0011 4Z" fill="#00A3FF"/>
<path id="Vector_4" d="M11.4824 8.12109H9.92097C9.80404 8.12109 9.69948 8.19068 9.65959 8.29573L6.3125 17.0543L7.92758 17.9446L11.6131 8.29967C11.6475 8.213 11.5801 8.12109 11.4824 8.12109Z" fill="#00A3FF"/>
<path id="Vector_5" d="M14.2148 8.12109H12.6534C12.5365 8.12109 12.4319 8.19068 12.392 8.29573L8.57031 18.2966L10.1854 19.1869L14.3455 8.29967C14.3785 8.213 14.3111 8.12109 14.2148 8.12109Z" fill="#00A3FF"/>
</g>
</g>
</svg>
