<svg width="24" height="24" viewBox="0 0 24 24" fill="none" xmlns="http://www.w3.org/2000/svg">
<g id="ICP logo">
<g id="Group 329">
<path id="Vector" d="M17.7191 6.73242C16.4752 6.73242 15.1171 7.37131 13.683 8.63551C13.0734 9.17655 12.5026 9.75979 11.9746 10.3809C11.9746 10.3809 12.6699 11.1394 13.4413 11.9523C13.9614 11.3235 14.527 10.7338 15.1334 10.1879C16.41 9.06778 17.2411 8.82853 17.7164 8.82853C18.5663 8.81764 19.3857 9.14478 19.9947 9.73811C20.6038 10.3314 20.9527 11.1425 20.9649 11.9931C20.9485 12.8421 20.5987 13.6505 19.9912 14.2433C19.3837 14.8361 18.5675 15.1655 17.7191 15.1604C17.613 15.1572 17.5075 15.1436 17.4041 15.1196C17.9155 15.3579 18.4699 15.4901 19.0337 15.5084C22.3121 15.5084 22.9531 13.366 22.9965 13.2138C23.094 12.8133 23.1432 12.4026 23.1432 11.9904C23.1432 9.09497 20.715 6.73242 17.7327 6.73242H17.7191Z" fill="url(#paint0_linear_1058_811)"/>
<path id="Vector_2" d="M6.26517 17.2675C7.51185 17.2675 8.86719 16.6286 10.304 15.3644C10.9129 14.8227 11.4838 14.2395 12.0124 13.619C12.0124 13.619 11.3144 12.8605 10.5457 12.0476C10.0246 12.6764 9.45812 13.2661 8.85089 13.812C7.57704 14.9321 6.7432 15.1714 6.26789 15.1714C5.41828 15.1801 4.59986 14.8513 3.99198 14.2571C3.3841 13.6629 3.03633 12.8518 3.02487 12.0014C3.04198 11.154 3.39142 10.3474 3.99771 9.75583C4.604 9.16422 5.41847 8.83509 6.26517 8.83955C6.3721 8.84153 6.47857 8.85429 6.58295 8.87761C6.07641 8.64097 5.52809 8.50699 4.96959 8.4834C1.69127 8.4834 1.05299 10.623 1.00682 10.7753C0.907052 11.1745 0.856873 11.5845 0.857426 11.996C0.857426 14.8995 3.28833 17.2621 6.26789 17.2621L6.26517 17.2675Z" fill="url(#paint1_linear_1058_811)"/>
<path id="Vector_3" d="M19.0116 15.4622C17.3331 15.4187 15.5893 14.1029 15.2335 13.7658C14.3128 12.9175 12.1888 10.6121 12.0312 10.4299C10.4776 8.68453 8.36995 6.73251 6.27312 6.73251C5.07117 6.72556 3.90107 7.11903 2.9471 7.85094C1.99313 8.58286 1.3095 9.61162 1.00391 10.7752C1.04465 10.623 1.88392 8.43985 4.96125 8.51598C6.6398 8.55948 8.39168 9.90251 8.76378 10.2315C9.68454 11.0851 11.8058 13.3879 11.9715 13.5673C13.5169 15.31 15.6246 17.2675 17.7187 17.2675C18.9185 17.2718 20.0857 16.8772 21.037 16.1454C21.9883 15.4137 22.6698 14.3863 22.9744 13.2248C22.9364 13.3716 22.0944 15.5356 19.0116 15.4622Z" fill="#29ABE2"/>
</g>
</g>
<defs>
<linearGradient id="paint0_linear_1058_811" x1="15.278" y1="7.41269" x2="22.6404" y2="15.0244" gradientUnits="userSpaceOnUse">
<stop offset="0.21" stop-color="#F15A24"/>
<stop offset="0.68" stop-color="#FBB03B"/>
</linearGradient>
<linearGradient id="paint1_linear_1058_811" x1="9.4607" y1="16.5514" x2="2.09829" y2="8.9331" gradientUnits="userSpaceOnUse">
<stop offset="0.21" stop-color="#ED1E79"/>
<stop offset="0.89" stop-color="#522785"/>
</linearGradient>
</defs>
</svg>
