<svg xmlns="http://www.w3.org/2000/svg" width="24" height="24" viewBox="0 0 24 24" fill="none">
    <path d="M8.45716 6.22722L13.3743 3.43271C13.4518 3.38975 13.5162 3.3267 13.561 3.25014C13.6058 3.17358 13.6293 3.08635 13.6289 2.99757V2.94168C13.6292 2.85422 13.6064 2.76826 13.5629 2.69246C13.5195 2.61666 13.4568 2.55372 13.3814 2.50998C13.3059 2.46625 13.2203 2.44326 13.1331 2.44336C13.046 2.44346 12.9604 2.46662 12.885 2.51053L7.96982 5.36492C7.89466 5.40858 7.83226 5.4713 7.78887 5.5468C7.74549 5.6223 7.72266 5.70792 7.72266 5.79507C7.72266 5.88222 7.74549 5.96784 7.78887 6.04334C7.83226 6.11884 7.89466 6.18156 7.96982 6.22522C8.04373 6.26845 8.12768 6.29139 8.21323 6.29174C8.29877 6.29209 8.3829 6.26984 8.45716 6.22722Z" fill="url(#paint0_linear_1123_42)"/>
    <path d="M12.8029 10.5634L19.3472 6.77086C19.481 6.69321 19.5921 6.5816 19.6694 6.44724C19.7466 6.31287 19.7873 6.16048 19.7873 6.00536C19.7873 5.85024 19.7466 5.69785 19.6694 5.56349C19.5921 5.42913 19.481 5.31752 19.3472 5.23987C19.2507 5.18398 19.1413 5.15456 19.0299 5.15456C18.9185 5.15456 18.8091 5.18398 18.7127 5.23987L12.5224 8.83281C12.4263 8.88871 12.3172 8.91815 12.2062 8.91815C12.0951 8.91815 11.986 8.88871 11.8899 8.83281L11.0584 8.34975C10.9622 8.29407 10.8822 8.21393 10.8266 8.11739C10.7711 8.02085 10.7418 7.91133 10.7418 7.79984C10.7418 7.68834 10.7711 7.57882 10.8266 7.48228C10.8822 7.38574 10.9622 7.3056 11.0584 7.24992L15.8543 4.46539C15.9633 4.40238 16.0539 4.31164 16.1169 4.20231C16.1799 4.09297 16.2131 3.96891 16.2131 3.84261C16.2131 3.71632 16.1799 3.59225 16.1169 3.48292C16.0539 3.37359 15.9633 3.28284 15.8543 3.21984C15.7579 3.16356 15.6485 3.13391 15.537 3.13391C15.4255 3.13391 15.316 3.16356 15.2197 3.21984L9.05337 6.81277C8.95691 6.86866 8.84749 6.89808 8.7361 6.89808C8.62472 6.89808 8.51529 6.86866 8.41883 6.81277L7.62317 6.34569C7.52692 6.29001 7.44697 6.20987 7.39139 6.11333C7.33581 6.01679 7.30654 5.90727 7.30654 5.79577C7.30654 5.68428 7.33581 5.57475 7.39139 5.47822C7.44697 5.38168 7.52692 5.30154 7.62317 5.24586L12.5443 2.38747C12.641 2.33193 12.7214 2.25172 12.7773 2.15498C12.8332 2.05824 12.8627 1.94839 12.8627 1.83656C12.8627 1.72472 12.8332 1.61488 12.7773 1.51813C12.7214 1.42139 12.641 1.34118 12.5443 1.28564C12.4484 1.2303 12.3397 1.20117 12.229 1.20117C12.1184 1.20117 12.0097 1.2303 11.9138 1.28564L5.5485 4.9684C5.36717 5.07355 5.21661 5.22472 5.11193 5.40674C5.00725 5.58876 4.95215 5.79521 4.95215 6.00536C4.95215 6.21551 5.00725 6.42197 5.11193 6.60399C5.21661 6.786 5.36717 6.93718 5.5485 7.04232L11.6253 10.5634C11.8049 10.6656 12.0077 10.7193 12.2141 10.7193C12.4205 10.7193 12.6234 10.6656 12.8029 10.5634Z" fill="url(#paint1_linear_1123_42)"/>
    <path d="M11.4168 8.22642C11.4921 8.2691 11.577 8.29153 11.6635 8.29153C11.7499 8.29153 11.8349 8.2691 11.9101 8.22642L16.8353 5.42193C16.9112 5.37814 16.9744 5.31507 17.0184 5.23904C17.0624 5.16301 17.0857 5.0767 17.0859 4.98878V4.93289C17.0861 4.84544 17.0633 4.75947 17.0199 4.68368C16.9764 4.60788 16.9138 4.54493 16.8383 4.50119C16.7628 4.45746 16.6772 4.43448 16.5901 4.43457C16.5029 4.43467 16.4173 4.45783 16.342 4.50174L11.4168 7.36411C11.3417 7.40804 11.2794 7.47097 11.236 7.54663C11.1927 7.62228 11.1699 7.70801 11.1699 7.79526C11.1699 7.88252 11.1927 7.96825 11.236 8.0439C11.2794 8.11955 11.3417 8.18248 11.4168 8.22642Z" fill="url(#paint2_linear_1123_42)"/>
    <path d="M14.5197 6.42869C14.5195 6.35245 14.5026 6.27719 14.4702 6.20822C14.4379 6.13924 14.3908 6.07824 14.3324 6.0295C14.274 5.98077 14.2056 5.9455 14.1321 5.92618C14.0586 5.90686 13.9818 5.90397 13.907 5.9177L11.4166 7.36485C11.3024 7.4305 11.2189 7.53898 11.1844 7.66645C11.1498 7.79391 11.1672 7.9299 11.2326 8.04452C11.298 8.15913 11.4062 8.24297 11.5332 8.2776C11.6602 8.31222 11.7957 8.2948 11.9099 8.22915L14.4023 6.80795C14.4767 6.7173 14.5181 6.60396 14.5197 6.48658V6.42869Z" fill="url(#paint3_linear_1123_42)"/>
    <path d="M14.5197 6.42869C14.5195 6.35245 14.5026 6.27719 14.4702 6.20822C14.4379 6.13924 14.3908 6.07824 14.3324 6.0295C14.274 5.98077 14.2056 5.9455 14.1321 5.92618C14.0586 5.90686 13.9818 5.90397 13.907 5.9177L11.4166 7.36485C11.3024 7.4305 11.2189 7.53898 11.1844 7.66645C11.1498 7.79391 11.1672 7.9299 11.2326 8.04452C11.298 8.15913 11.4062 8.24297 11.5332 8.2776C11.6602 8.31222 11.7957 8.2948 11.9099 8.22915L14.4023 6.80795C14.4767 6.7173 14.5181 6.60396 14.5197 6.48658V6.42869Z" fill="url(#paint4_linear_1123_42)"/>
    <path d="M11.0669 4.42924C11.0669 4.35219 11.0499 4.27609 11.0171 4.20644C10.9842 4.13678 10.9364 4.0753 10.8771 4.02643C10.8177 3.97755 10.7483 3.9425 10.6738 3.92379C10.5993 3.90508 10.5216 3.90319 10.4463 3.91825L7.95589 5.36341C7.88076 5.40734 7.81843 5.47027 7.77511 5.54592C7.73178 5.62157 7.70898 5.7073 7.70898 5.79456C7.70898 5.88181 7.73178 5.96754 7.77511 6.0432C7.81843 6.11885 7.88076 6.18178 7.95589 6.22571C8.03082 6.26935 8.11591 6.29234 8.20255 6.29234C8.28918 6.29234 8.37427 6.26935 8.4492 6.22571L10.9416 4.8065C11.0159 4.71586 11.0573 4.60252 11.059 4.48513L11.0669 4.42924Z" fill="url(#paint5_linear_1123_42)"/>
    <path d="M11.0669 4.42924C11.0669 4.35219 11.0499 4.27609 11.0171 4.20644C10.9842 4.13678 10.9364 4.0753 10.8771 4.02643C10.8177 3.97755 10.7483 3.9425 10.6738 3.92379C10.5993 3.90508 10.5216 3.90319 10.4463 3.91825L7.95589 5.36341C7.88076 5.40734 7.81843 5.47027 7.77511 5.54592C7.73178 5.62157 7.70898 5.7073 7.70898 5.79456C7.70898 5.88181 7.73178 5.96754 7.77511 6.0432C7.81843 6.11885 7.88076 6.18178 7.95589 6.22571C8.03082 6.26935 8.11591 6.29234 8.20255 6.29234C8.28918 6.29234 8.37427 6.26935 8.4492 6.22571L10.9416 4.8065C11.0159 4.71586 11.0573 4.60252 11.059 4.48513L11.0669 4.42924Z" fill="url(#paint6_linear_1123_42)"/>
    <path d="M12.0634 13.2324C12.0631 13.0881 12.0251 12.9463 11.9532 12.8213C11.8813 12.6963 11.778 12.5924 11.6537 12.5198L5.38984 8.88897C5.20835 8.78382 5.00247 8.72848 4.79291 8.72852C4.58334 8.72855 4.37748 8.78396 4.19602 8.88916C4.01457 8.99437 3.86392 9.14566 3.75922 9.32783C3.65452 9.51001 3.59948 9.71663 3.59961 9.92693V17.1847C3.59994 17.329 3.63795 17.4707 3.70984 17.5958C3.78173 17.7208 3.885 17.8247 4.00937 17.8973C4.13399 17.9695 4.27535 18.0075 4.41924 18.0074C4.56313 18.0074 4.70448 17.9694 4.82907 17.8972C4.95367 17.8249 5.05712 17.7211 5.12902 17.596C5.20092 17.4709 5.23873 17.3291 5.23867 17.1847V11.6356C5.23883 11.5297 5.26693 11.4259 5.32011 11.3345C5.3733 11.2431 5.44967 11.1675 5.54144 11.1154C5.63321 11.0632 5.73711 11.0364 5.84256 11.0377C5.94801 11.039 6.05124 11.0683 6.14174 11.1226L10.4244 13.6955L10.8441 13.937C10.9678 14.0065 11.1074 14.0425 11.2492 14.0416C11.391 14.0407 11.5301 14.0029 11.653 13.9319C11.7758 13.8609 11.8782 13.7591 11.9502 13.6365C12.0221 13.5139 12.0611 13.3747 12.0634 13.2324Z" fill="url(#paint7_linear_1123_42)"/>
    <path d="M7.18979 19.5833L10.8439 21.8308C10.9652 21.9085 11.1053 21.9517 11.2492 21.9558C11.3931 21.9598 11.5354 21.9247 11.6609 21.854C11.7865 21.7833 11.8906 21.6798 11.9621 21.5544C12.0337 21.4291 12.07 21.2866 12.0672 21.1422C12.0674 21.0018 12.0307 20.8639 11.9609 20.7423C11.891 20.6207 11.7905 20.5197 11.6693 20.4496L8.68563 18.677C8.6255 18.6422 8.57551 18.5922 8.54061 18.532C8.50572 18.4717 8.48714 18.4034 8.48672 18.3337V16.9724C8.48782 16.9029 8.50701 16.8348 8.54238 16.775C8.57774 16.7152 8.62807 16.6657 8.68836 16.6314C8.74865 16.5971 8.81683 16.5793 8.88613 16.5795C8.95543 16.5798 9.02345 16.5983 9.08346 16.6331L10.8439 17.7089C10.9649 17.7854 11.1042 17.8276 11.2471 17.8313C11.39 17.835 11.5313 17.8 11.6561 17.7299C11.7809 17.6599 11.8845 17.5574 11.9562 17.4332C12.0278 17.309 12.0648 17.1678 12.0632 17.0243C12.0628 16.8838 12.0258 16.7458 11.9561 16.624C11.8863 16.5022 11.7861 16.4008 11.6654 16.3296L8.40317 14.3935C8.25217 14.3036 8.08017 14.2555 7.90463 14.2539C7.72909 14.2524 7.55627 14.2975 7.40373 14.3847C7.25119 14.4719 7.12436 14.598 7.03612 14.7503C6.94789 14.9026 6.9014 15.0756 6.90137 15.2518V19.0763C6.90234 19.1784 6.92935 19.2787 6.97984 19.3674C7.03033 19.4562 7.1026 19.5305 7.18979 19.5833Z" fill="url(#paint8_linear_1123_42)"/>
    <path d="M13.9848 13.6996L18.2674 11.1227C18.3579 11.0683 18.4611 11.0391 18.5666 11.0378C18.672 11.0365 18.7759 11.0633 18.8677 11.1154C18.9595 11.1676 19.0358 11.2432 19.089 11.3346C19.1422 11.4259 19.1703 11.5298 19.1705 11.6357V17.1788C19.1712 17.322 19.2092 17.4625 19.2807 17.5865C19.3522 17.7105 19.4547 17.8136 19.5781 17.8856C19.7014 17.9575 19.8414 17.996 19.9842 17.997C20.1269 17.998 20.2674 17.9616 20.3918 17.8914C20.5162 17.8188 20.6195 17.7149 20.6913 17.5899C20.7632 17.4648 20.8012 17.3231 20.8016 17.1788V9.92302C20.8017 9.71273 20.7467 9.5061 20.642 9.32393C20.5373 9.14176 20.3866 8.99046 20.2052 8.88526C20.0237 8.78005 19.8178 8.72464 19.6083 8.72461C19.3987 8.72458 19.1928 8.77992 19.0113 8.88506L12.7555 12.5139C12.6302 12.587 12.5264 12.6919 12.4545 12.818C12.3825 12.9442 12.345 13.0872 12.3457 13.2325C12.346 13.3767 12.3841 13.5184 12.4561 13.6431C12.5281 13.7679 12.6316 13.8715 12.7562 13.9435C12.8807 14.0155 13.0219 14.0534 13.1656 14.0533C13.3094 14.0532 13.4505 14.0152 13.575 13.9431L13.9848 13.6996Z" fill="url(#paint9_linear_1123_42)"/>
    <path d="M17.1376 15.5133L13.5173 17.739C13.4006 17.8106 13.2671 17.8498 13.1303 17.8524C12.9935 17.855 12.8586 17.8211 12.7392 17.754C12.6199 17.6869 12.5206 17.5891 12.4514 17.4707C12.3822 17.3523 12.3457 17.2175 12.3457 17.0803V17.0024C12.3457 16.8682 12.3806 16.7363 12.4469 16.6198C12.5132 16.5032 12.6085 16.406 12.7236 16.3377L16.3439 14.1899C16.4606 14.1204 16.5936 14.0832 16.7294 14.0821C16.8651 14.0809 16.9987 14.1159 17.1166 14.1835C17.2344 14.251 17.3323 14.3487 17.4003 14.4666C17.4683 14.5845 17.5039 14.7184 17.5036 14.8546C17.5039 14.9867 17.4705 15.1166 17.4064 15.232C17.3423 15.3473 17.2497 15.4442 17.1376 15.5133Z" fill="url(#paint10_linear_1123_42)"/>
    <path d="M17.1376 19.6364L13.5173 21.862C13.4006 21.9336 13.2671 21.9728 13.1303 21.9754C12.9935 21.9781 12.8586 21.9441 12.7392 21.877C12.6199 21.8099 12.5206 21.7121 12.4514 21.5937C12.3822 21.4753 12.3457 21.3406 12.3457 21.2033V21.1255C12.3457 20.9913 12.3806 20.8594 12.4469 20.7428C12.5132 20.6263 12.6085 20.5291 12.7236 20.4608L16.3439 18.313C16.4606 18.2435 16.5936 18.2062 16.7294 18.2051C16.8651 18.204 16.9987 18.239 17.1166 18.3065C17.2344 18.3741 17.3323 18.4718 17.4003 18.5897C17.4683 18.7076 17.5039 18.8415 17.5036 18.9777C17.5037 19.1097 17.4702 19.2396 17.4061 19.3549C17.342 19.4702 17.2496 19.5671 17.1376 19.6364Z" fill="url(#paint11_linear_1123_42)"/>
    <path d="M16.3439 14.1899L12.7236 16.3377C12.6085 16.406 12.5132 16.5032 12.4469 16.6198C12.3806 16.7363 12.3457 16.8682 12.3457 17.0024V17.0803C12.3457 17.2175 12.3822 17.3523 12.4514 17.4707C12.5206 17.5891 12.6199 17.6869 12.7392 17.754C12.8586 17.8211 12.9935 17.855 13.1303 17.8524C13.2671 17.8498 13.4006 17.8106 13.5173 17.739L17.1376 15.5133C17.2497 15.4442 17.3423 15.3473 17.4064 15.232C17.4705 15.1166 17.5039 14.9867 17.5036 14.8546C17.5039 14.7184 17.4683 14.5845 17.4003 14.4666C17.3323 14.3487 17.2344 14.251 17.1166 14.1835C16.9987 14.1159 16.8651 14.0809 16.7294 14.0821C16.5936 14.0832 16.4606 14.1204 16.3439 14.1899ZM16.4931 15.6451L13.9291 17.224C13.8465 17.2751 13.7518 17.3033 13.6548 17.3054C13.5578 17.3076 13.462 17.2838 13.3773 17.2364C13.2925 17.189 13.2219 17.1197 13.1727 17.0358C13.1236 16.9518 13.0976 16.8563 13.0976 16.7589V16.703C13.0968 16.6068 13.1212 16.5122 13.1683 16.4284C13.2154 16.3447 13.2837 16.2749 13.3661 16.2259L15.9301 14.7049C16.0536 14.635 16.1994 14.6161 16.3366 14.6523C16.4737 14.6884 16.5914 14.7768 16.6647 14.8987C16.738 15.0205 16.761 15.1662 16.729 15.3048C16.6969 15.4434 16.6123 15.5641 16.4931 15.6411V15.6451Z" fill="url(#paint12_linear_1123_42)"/>
    <path d="M16.3439 18.313L12.7236 20.4608C12.6085 20.5291 12.5132 20.6263 12.4469 20.7428C12.3806 20.8594 12.3457 20.9913 12.3457 21.1255V21.2033C12.3457 21.3406 12.3822 21.4753 12.4514 21.5937C12.5206 21.7121 12.6199 21.8099 12.7392 21.877C12.8586 21.9441 12.9935 21.9781 13.1303 21.9754C13.2671 21.9728 13.4006 21.9336 13.5173 21.862L17.1376 19.6364C17.2496 19.5671 17.342 19.4702 17.4061 19.3549C17.4702 19.2396 17.5037 19.1097 17.5036 18.9777C17.5039 18.8415 17.4683 18.7076 17.4003 18.5897C17.3323 18.4718 17.2344 18.3741 17.1166 18.3065C16.9987 18.239 16.8651 18.204 16.7294 18.2051C16.5936 18.2062 16.4606 18.2435 16.3439 18.313ZM16.4931 19.7681L13.9291 21.345C13.8465 21.3962 13.7518 21.4243 13.6548 21.4265C13.5578 21.4287 13.462 21.4048 13.3773 21.3574C13.2925 21.31 13.2219 21.2408 13.1727 21.1568C13.1236 21.0729 13.0976 20.9773 13.0976 20.8799V20.8181C13.0978 20.7229 13.1227 20.6295 13.1698 20.5469C13.2169 20.4643 13.2845 20.3954 13.3661 20.347L15.9301 18.826C16.0536 18.756 16.1994 18.7371 16.3366 18.7733C16.4737 18.8095 16.5914 18.8979 16.6647 19.0197C16.738 19.1415 16.761 19.2872 16.729 19.4258C16.6969 19.5645 16.6123 19.6851 16.4931 19.7621V19.7681Z" fill="url(#paint13_linear_1123_42)"/>
    <path d="M11.6537 12.5138L5.38984 8.88897C5.20835 8.78382 5.00247 8.72848 4.79291 8.72852C4.58334 8.72855 4.37748 8.78396 4.19602 8.88916C4.01457 8.99437 3.86392 9.14566 3.75922 9.32784C3.65452 9.51001 3.59948 9.71663 3.59961 9.92693V17.1847C3.59994 17.329 3.63795 17.4707 3.70984 17.5958C3.78173 17.7208 3.885 17.8247 4.00937 17.8973C4.0982 17.9489 4.19614 17.9828 4.2978 17.9971L4.41118 10.4379C4.41953 10.3188 4.4575 10.2037 4.52162 10.1031C4.58574 10.0025 4.67396 9.91959 4.77822 9.86201C4.88248 9.80444 4.99946 9.774 5.11847 9.77349C5.23747 9.77297 5.35471 9.80239 5.45946 9.85906L11.9401 13.6516C12.02 13.5236 12.0621 13.3755 12.0614 13.2244C12.061 13.0806 12.0231 12.9394 11.9516 12.8148C11.8801 12.6902 11.7774 12.5864 11.6537 12.5138Z" fill="url(#paint14_linear_1123_42)"/>
    <path d="M19.0193 8.88472L12.7555 12.5096C12.631 12.5815 12.5276 12.685 12.4556 12.8098C12.3837 12.9345 12.3458 13.0761 12.3457 13.2202C12.3467 13.3719 12.3894 13.5204 12.469 13.6494L18.9497 9.84683C19.0551 9.7902 19.173 9.7612 19.2926 9.76252C19.4121 9.76383 19.5294 9.79541 19.6336 9.85434C19.7377 9.91326 19.8254 9.99762 19.8884 10.0996C19.9514 10.2016 19.9877 10.3179 19.994 10.4377L20.1074 18.0008C20.2093 17.9865 20.3074 17.9519 20.3958 17.899C20.5203 17.8271 20.6237 17.7236 20.6956 17.5988C20.7675 17.4741 20.8055 17.3325 20.8055 17.1884V9.92268C20.8053 9.71297 20.7501 9.50701 20.6456 9.32539C20.5412 9.14378 20.391 8.99288 20.2101 8.88779C20.0293 8.7827 19.8241 8.7271 19.6151 8.72657C19.4061 8.72603 19.2007 8.78057 19.0193 8.88472Z" fill="url(#paint15_linear_1123_42)"/>
    <path d="M19.7027 5.62413L12.4204 9.71808C12.3117 9.77915 12.1885 9.8092 12.064 9.80498C11.9395 9.80075 11.8186 9.76242 11.7143 9.69413L9.07666 7.96952L6.16256 6.32675C6.06951 6.26092 5.99429 6.17283 5.94373 6.07047C5.89318 5.9681 5.86887 5.8547 5.87302 5.74052C5.87717 5.62635 5.90964 5.51502 5.96749 5.41662C6.02534 5.31822 6.10675 5.23586 6.20433 5.17701L12.685 1.4164C12.6379 1.36414 12.5828 1.31967 12.5219 1.28466C12.4259 1.22932 12.3172 1.2002 12.2066 1.2002C12.0959 1.2002 11.9872 1.22932 11.8913 1.28466L5.52603 4.96742C5.34471 5.07257 5.19415 5.22374 5.08947 5.40576C4.98479 5.58778 4.92969 5.79423 4.92969 6.00438C4.92969 6.21454 4.98479 6.42099 5.08947 6.60301C5.19415 6.78502 5.34471 6.9362 5.52603 7.04134L11.6029 10.5624C11.7843 10.6675 11.9901 10.7229 12.1996 10.7229C12.4091 10.7229 12.6149 10.6675 12.7964 10.5624L19.3407 6.76988C19.5334 6.65949 19.6777 6.48031 19.7448 6.268C19.8119 6.05569 19.7968 5.82582 19.7027 5.62413Z" fill="url(#paint16_linear_1123_42)"/>
    <path d="M12.064 17.0255C12.0649 17.0169 12.0649 17.0082 12.064 16.9995C12.066 16.9736 12.066 16.9476 12.064 16.9217C12.0546 16.8637 12.0393 16.8069 12.0183 16.752C11.9983 16.7009 11.973 16.6521 11.9427 16.6063L11.9288 16.5883L11.9149 16.5624C11.8879 16.5297 11.8594 16.4984 11.8293 16.4686C11.819 16.4569 11.8077 16.4462 11.7955 16.4366C11.7616 16.4067 11.7249 16.38 11.6861 16.3568L11.6642 16.3408L10.6696 15.752L8.41793 14.4146C8.2668 14.3233 8.09417 14.2739 7.91774 14.2716C7.74132 14.2693 7.56745 14.3141 7.41399 14.4014C7.26052 14.4888 7.13298 14.6156 7.04444 14.7687C6.9559 14.9219 6.90956 15.0959 6.91016 15.2729V19.0974C6.91059 19.1997 6.93714 19.3003 6.98728 19.3894C7.03743 19.4785 7.10949 19.5532 7.1966 19.6064L10.8447 21.832C11.017 21.9404 11.2241 21.9784 11.4235 21.9383C11.6229 21.8983 11.7994 21.7831 11.9168 21.6165L8.09171 19.1553C8.03359 19.1184 7.98599 19.067 7.95357 19.0061C7.92115 18.9453 7.90501 18.877 7.90672 18.808L7.9664 16.1452C7.96841 16.0591 7.99248 15.9751 8.0363 15.901C8.08012 15.827 8.14221 15.7656 8.21658 15.7227C8.29094 15.6797 8.37508 15.6567 8.46087 15.6559C8.54666 15.6551 8.63121 15.6765 8.70636 15.7181L11.9168 17.4846L11.9984 17.3409C12.0165 17.2963 12.0305 17.2502 12.0402 17.2031V17.1912C12.0411 17.1852 12.0411 17.1791 12.0402 17.1732C12.0533 17.1249 12.0613 17.0754 12.064 17.0255Z" fill="url(#paint17_linear_1123_42)"/>
    <defs>
        <linearGradient id="paint0_linear_1123_42" x1="2.41613" y1="4.7122" x2="20.1535" y2="3.97678" gradientUnits="userSpaceOnUse">
            <stop stop-color="#25EDFF"/>
            <stop offset="1" stop-color="#29ABE2"/>
        </linearGradient>
        <linearGradient id="paint1_linear_1123_42" x1="4.93584" y1="5.96245" x2="19.7868" y2="5.96245" gradientUnits="userSpaceOnUse">
            <stop stop-color="#25EDFF"/>
            <stop offset="1" stop-color="#29ABE2"/>
        </linearGradient>
        <linearGradient id="paint2_linear_1123_42" x1="11.9201" y1="6.4559" x2="15.0888" y2="6.32507" gradientUnits="userSpaceOnUse">
            <stop stop-color="#25EDFF"/>
            <stop offset="1" stop-color="#29ABE2"/>
        </linearGradient>
        <linearGradient id="paint3_linear_1123_42" x1="11.9477" y1="7.1393" x2="15.1185" y2="7.00648" gradientUnits="userSpaceOnUse">
            <stop stop-color="#25EDFF"/>
            <stop offset="1" stop-color="#29ABE2"/>
        </linearGradient>
        <linearGradient id="paint4_linear_1123_42" x1="11.6513" y1="7.15127" x2="13.4814" y2="7.07396" gradientUnits="userSpaceOnUse">
            <stop stop-color="#25EDFF"/>
            <stop offset="1" stop-color="#00A2F4"/>
        </linearGradient>
        <linearGradient id="paint5_linear_1123_42" x1="8.49694" y1="5.13785" x2="11.6657" y2="5.00702" gradientUnits="userSpaceOnUse">
            <stop stop-color="#25EDFF"/>
            <stop offset="1" stop-color="#29ABE2"/>
        </linearGradient>
        <linearGradient id="paint6_linear_1123_42" x1="8.19857" y1="5.15182" x2="10.0306" y2="5.07451" gradientUnits="userSpaceOnUse">
            <stop stop-color="#25EDFF"/>
            <stop offset="1" stop-color="#00A2F4"/>
        </linearGradient>
        <linearGradient id="paint7_linear_1123_42" x1="14.0625" y1="18.8055" x2="4.79898" y2="13.4879" gradientUnits="userSpaceOnUse">
            <stop stop-color="#ED1E79"/>
            <stop offset="1" stop-color="#622BFF"/>
        </linearGradient>
        <linearGradient id="paint8_linear_1123_42" x1="13.2547" y1="20.21" x2="3.99315" y2="14.8924" gradientUnits="userSpaceOnUse">
            <stop stop-color="#ED1E79"/>
            <stop offset="1" stop-color="#622BFF"/>
        </linearGradient>
        <linearGradient id="paint9_linear_1123_42" x1="12.3457" y1="13.3623" x2="20.8095" y2="13.3623" gradientUnits="userSpaceOnUse">
            <stop stop-color="#FBB03B"/>
            <stop offset="1" stop-color="#F15A24"/>
        </linearGradient>
        <linearGradient id="paint10_linear_1123_42" x1="12.3457" y1="15.9684" x2="17.5036" y2="15.9684" gradientUnits="userSpaceOnUse">
            <stop stop-color="#FBB03B"/>
            <stop offset="1" stop-color="#F26327"/>
        </linearGradient>
        <linearGradient id="paint11_linear_1123_42" x1="12.3457" y1="20.0915" x2="17.5036" y2="20.0915" gradientUnits="userSpaceOnUse">
            <stop stop-color="#FBB03B"/>
            <stop offset="1" stop-color="#F26327"/>
        </linearGradient>
        <linearGradient id="paint12_linear_1123_42" x1="12.3457" y1="15.9684" x2="17.5036" y2="15.9684" gradientUnits="userSpaceOnUse">
            <stop offset="0.03" stop-color="#F26327"/>
            <stop offset="1" stop-color="#F4742B"/>
        </linearGradient>
        <linearGradient id="paint13_linear_1123_42" x1="12.3457" y1="20.0915" x2="17.5036" y2="20.0915" gradientUnits="userSpaceOnUse">
            <stop offset="0.03" stop-color="#F26327"/>
            <stop offset="1" stop-color="#F4742B"/>
        </linearGradient>
        <linearGradient id="paint14_linear_1123_42" x1="10.7804" y1="13.3901" x2="2.60305" y2="13.3544" gradientUnits="userSpaceOnUse">
            <stop stop-color="#EF59A1"/>
            <stop offset="1" stop-color="#2A16B7"/>
        </linearGradient>
        <linearGradient id="paint15_linear_1123_42" x1="14.0345" y1="16.0027" x2="23.0801" y2="11.8628" gradientUnits="userSpaceOnUse">
            <stop stop-color="#F79D26"/>
            <stop offset="1" stop-color="#D62D00"/>
        </linearGradient>
        <linearGradient id="paint16_linear_1123_42" x1="4.93526" y1="5.96346" x2="19.7862" y2="5.96346" gradientUnits="userSpaceOnUse">
            <stop stop-color="#00A2F4"/>
            <stop offset="1" stop-color="#25EDFF"/>
        </linearGradient>
        <linearGradient id="paint17_linear_1123_42" x1="6.90419" y1="18.1014" x2="12.064" y2="18.1014" gradientUnits="userSpaceOnUse">
            <stop stop-color="#4720B4"/>
            <stop offset="1" stop-color="#EF59A1"/>
        </linearGradient>
    </defs>
</svg>