<svg xmlns="http://www.w3.org/2000/svg" width="132" height="133" viewBox="0 0 132 133" fill="none">
    <path d="M93.2397 56.2497L78.1108 56.25C76.9902 56.0633 76.6166 54.9426 76.4299 54.3822L76.4301 40.7469C76.4302 37.0111 73.4418 34.0226 69.7063 34.0227C66.3443 34.0228 63.5427 36.6378 62.9823 39.8132C60.9275 52.7014 53.0828 56.9977 48.0398 58.3053C48.2266 58.8656 48.2266 59.2392 48.2266 59.6127L48.2259 95.8492C48.2258 96.5963 48.039 97.3434 47.6655 98.0906L84.2736 98.0899C87.8224 97.3427 90.2505 96.0351 91.9315 92.4862L99.5899 65.5889C101.084 60.7324 98.6562 56.0628 93.2397 56.2497ZM45.0507 96.036L45.0514 59.6128C45.0514 58.4921 43.5572 57.5582 41.8762 57.5582L36.8333 57.5583C34.2184 57.5584 31.977 59.7999 31.977 62.4149L31.9764 93.0477C31.9763 95.8495 34.0308 98.0909 36.8325 98.0908L41.8754 98.0907C43.5564 98.0907 45.0506 97.1567 45.0507 96.036Z" fill="#A45EFF"/>
    <path fill-rule="evenodd" clip-rule="evenodd" d="M42.1883 37.0151C41.5703 35.4702 40.3463 34.2461 38.8015 33.6281V33.6281V33.6281C40.3463 33.01 41.5704 31.7858 42.1884 30.2409V30.2409V30.2409C42.8065 31.7858 44.0305 33.0099 45.5753 33.6279V33.6279V33.6279C44.0305 34.246 42.8064 35.4702 42.1883 37.0151V37.0151V37.0151Z" stroke="#E7DBFF" stroke-width="0.8" stroke-linecap="round" stroke-linejoin="round"/>
    <path d="M64.4812 15.6428L66.9515 18.2646" stroke="#CDB5FF" stroke-linecap="round" stroke-linejoin="round"/>
    <path d="M70.2448 21.7609L72.7151 24.3827" stroke="#CDB5FF" stroke-linecap="round" stroke-linejoin="round"/>
    <path d="M64.2287 24.1302L66.8504 21.6597" stroke="#CDB5FF" stroke-linecap="round" stroke-linejoin="round"/>
    <path d="M70.3459 18.3655L72.9676 15.8951" stroke="#CDB5FF" stroke-linecap="round" stroke-linejoin="round"/>
    <path fill-rule="evenodd" clip-rule="evenodd" d="M101.043 27.1587C100.73 26.3758 100.109 25.7554 99.3265 25.4422V25.4422V25.4422C100.109 25.129 100.73 24.5086 101.043 23.7257V23.7257V23.7257C101.356 24.5086 101.977 25.129 102.759 25.4422V25.4422V25.4422C101.977 25.7554 101.356 26.3758 101.043 27.1587V27.1587V27.1587Z" stroke="#CDB5FF" stroke-width="0.8" stroke-linecap="round" stroke-linejoin="round"/>
</svg>